#!OML:ASF F:\VICON\USERDATA\INSTALL\rory3\rory3.ASF
:FULLY-SPECIFIED
:DEGREES
207
root -9.08736 17.4587 5.64174 -181.264 50.729 -177.604
lowerback 11.936 0.277392 -4.38707
upperback 1.1875 -0.0182641 1.84952
thorax -5.44664 0.145683 4.43218
lowerneck -14.4473 -6.8757 -11.1545
upperneck 34.9806 -7.67738 7.13093
head 15.5044 -3.18584 3.78745
rclavicle -3.32157e-014 2.17669e-014
rhumerus -38.5378 -22.6743 -71.4318
rradius 33.3431
rwrist 8.98879
rhand -21.9736 7.32812
rfingers 7.12502
rthumb 4.43421 -22.6055
lclavicle -3.32157e-014 2.17669e-014
lhumerus -33.3023 9.05252 76.3384
lradius 33.6375
lwrist -3.93983
lhand -20.0708 26.6863
lfingers 7.12502
lthumb 6.27149 56.5734
rfemur 2.93002 5.73223 2.60837
rtibia 19.5298
rfoot -8.79167 7.61562
rtoes -27.2606
lfemur -3.98628 -9.53005 -7.41195
ltibia 23.2593
lfoot -16.2277 -13.8773
ltoes -11.5938
208
root -9.003 17.4423 5.75298 -181.333 50.1383 -177.64
lowerback 12.0119 0.225037 -4.53896
upperback 1.20365 -0.109299 1.84945
thorax -5.46147 0.105048 4.53445
lowerneck -14.5983 -6.78885 -10.7915
upperneck 34.9781 -7.47175 6.64887
head 15.4637 -3.11424 3.54899
rclavicle 1.69806e-014 -1.37161e-014
rhumerus -38.3755 -22.38 -71.6989
rradius 33.378
rwrist 8.88256
rhand -21.8466 7.25078
rfingers 7.12502
rthumb 4.55691 -22.6802
lclavicle 1.69806e-014 -1.37161e-014
lhumerus -33.2076 9.2561 76.0956
lradius 33.5276
lwrist -3.9591
lhand -19.9603 26.8823
lfingers 7.12502
lthumb 6.37814 56.7662
rfemur 3.23278 5.70664 2.87073
rtibia 19.5953
rfoot -9.83335 7.5693
rtoes -30.3932
lfemur -3.95316 -10.2521 -6.8972
ltibia 22.9413
lfoot -14.9366 -14.5512
ltoes -5.57194
209
root -8.91391 17.4341 5.86734 -181.188 49.4458 -177.454
lowerback 11.9809 0.167067 -4.5043
upperback 1.25975 -0.176867 1.85065
thorax -5.37724 0.0686478 4.52593
lowerneck -14.6838 -6.79302 -10.8951
upperneck 34.9896 -7.49103 6.81371
head 15.5072 -3.11064 3.63506
rclavicle 1.07679e-013 1.70209e-014
rhumerus -38.2158 -22.1082 -72.0472
rradius 33.4816
rwrist 8.83913
rhand -22.0877 7.10289
rfingers 7.12502
rthumb 4.32406 -22.833
lclavicle 1.07679e-013 1.70209e-014
lhumerus -33.0662 9.42093 75.8812
lradius 33.4647
lwrist -4.17377
lhand -19.7344 27.1097
lfingers 7.12502
lthumb 6.59625 56.987
rfemur 3.53756 5.77937 3.35545
rtibia 19.6903
rfoot -10.923 7.43108
rtoes -30.883
lfemur -4.06543 -10.8777 -6.22429
ltibia 22.6145
lfoot -13.9487 -14.9302
ltoes -1.89099
210
root -8.82483 17.4251 5.98739 -180.986 48.9629 -177.26
lowerback 11.9133 0.180361 -4.49374
upperback 1.2965 -0.152174 1.86547
thorax -5.3034 0.0785601 4.53033
lowerneck -14.7986 -6.8107 -11.0762
upperneck 35.0618 -7.48724 6.94343
head 15.5882 -3.11103 3.72614
rclavicle 8.08477e-014 -1.17361e-014
rhumerus -38.019 -22.0688 -72.3138
rradius 33.4612
rwrist 9.05892
rhand -22.275 7.04775
rfingers 7.12502
rthumb 4.14324 -22.8917
lclavicle 8.08477e-014 -1.17361e-014
lhumerus -32.8986 9.65789 75.6402
lradius 33.3914
lwrist -4.50587
lhand -19.7866 27.2256
lfingers 7.12502
lthumb 6.5458 57.1045
rfemur 3.62811 5.80764 3.9019
rtibia 19.8371
rfoot -11.8907 8.12321
rtoes -29.527
lfemur -4.18995 -11.3847 -5.53043
ltibia 22.246
lfoot -13.6944 -14.8945
ltoes -1.74875
211
root -8.73726 17.4112 6.11514 -180.878 48.5035 -177.25
lowerback 11.9051 0.170427 -4.67212
upperback 1.29148 -0.189406 1.85535
thorax -5.29934 0.0637813 4.6274
lowerneck -15.0352 -6.78781 -11.2098
upperneck 35.2502 -7.40083 7.01363
head 15.7392 -3.07517 3.80258
rclavicle -1.93691e-014 -9.69075e-015
rhumerus -37.7139 -21.9747 -72.6395
rradius 33.3168
rwrist 9.24557
rhand -22.1595 7.06602
rfingers 7.12502
rthumb 4.25477 -22.8712
lclavicle -1.93691e-014 -9.69075e-015
lhumerus -32.7344 9.79536 75.3668
lradius 33.3222
lwrist -4.5029
lhand -19.6868 27.1225
lfingers 7.12502
lthumb 6.64214 56.9984
rfemur 3.5587 5.47436 4.34394
rtibia 20.0194
rfoot -12.8803 9.34429
rtoes -29.5094
lfemur -4.34776 -11.8387 -4.92882
ltibia 21.8529
lfoot -13.2649 -14.7707
ltoes -2.29867
212
root -8.65132 17.403 6.25042 -180.803 47.786 -177.233
lowerback 12.0433 0.207218 -4.7792
upperback 1.21089 -0.170681 1.75021
thorax -5.46384 0.0796435 4.57633
lowerneck -14.9479 -6.8566 -11.0836
upperneck 35.3577 -7.53848 7.04321
head 15.784 -3.10287 3.77641
rclavicle 5.63989e-014 8.59744e-015
rhumerus -37.8237 -21.957 -72.9915
rradius 33.4771
rwrist 8.94872
rhand -21.7999 6.9301
rfingers 7.12502
rthumb 4.60194 -22.9999
lclavicle 5.63989e-014 8.59744e-015
lhumerus -32.5609 9.49294 75.122
lradius 33.2075
lwrist -4.52055
lhand -19.5836 27.0605
lfingers 7.12502
lthumb 6.74179 56.9332
rfemur 3.64829 5.3094 4.84852
rtibia 20.1882
rfoot -13.5867 10.1301
rtoes -27.7287
lfemur -4.64656 -12.3635 -4.28561
ltibia 21.504
lfoot -12.6316 -14.7913
ltoes -3.64682
213
root -8.56848 17.3975 6.37935 -180.648 47.0102 -177.029
lowerback 12.1863 0.330311 -4.56458
upperback 1.09923 -0.00233335 1.54771
thorax -5.6813 0.161954 4.21316
lowerneck -14.5057 -6.98496 -10.8104
upperneck 35.3853 -7.87617 7.21198
head 15.7281 -3.17346 3.75263
rclavicle 4.96216e-014 -1.13307e-014
rhumerus -38.2687 -21.9957 -73.385
rradius 33.8168
rwrist 8.28329
rhand -21.4087 6.8411
rfingers 7.12502
rthumb 4.97972 -23.0804
lclavicle 4.96216e-014 -1.13307e-014
lhumerus -32.3942 8.79716 74.8655
lradius 33.1272
lwrist -4.68443
lhand -19.6399 26.9582
lfingers 7.12502
lthumb 6.68742 56.8326
rfemur 3.895 5.30966 5.54652
rtibia 20.3165
rfoot -14.3611 9.95614
rtoes -26.2129
lfemur -4.91163 -13.0952 -3.53605
ltibia 21.181
lfoot -12.4967 -14.5799
ltoes -6.92769
214
root -8.48533 17.3902 6.49888 -180.61 46.3556 -176.922
lowerback 12.2636 0.4203 -4.38524
upperback 1.07236 0.127847 1.39234
thorax -5.76602 0.222237 3.92465
lowerneck -14.2216 -7.02557 -10.8104
upperneck 35.4114 -8.03401 7.51298
head 15.7118 -3.18933 3.86589
rclavicle -1.10214e-013 -1.13307e-014
rhumerus -38.4554 -21.9138 -73.7229
rradius 33.9647
rwrist 8.06092
rhand -21.3764 6.74136
rfingers 7.12502
rthumb 5.01087 -23.1794
lclavicle -1.10214e-013 -1.13307e-014
lhumerus -32.1843 8.35655 74.6844
lradius 33.0403
lwrist -4.87523
lhand -19.724 26.6433
lfingers 7.12502
lthumb 6.60629 56.5202
rfemur 4.10638 4.75221 6.17207
rtibia 20.4168
rfoot -15.6403 9.30533
rtoes -29.4562
lfemur -5.01712 -13.9222 -2.92595
ltibia 20.7848
lfoot -12.11 -14.2529
ltoes -8.48007
215
root -8.39825 17.3893 6.6167 -180.607 45.7511 -176.9
lowerback 12.2688 0.436032 -4.31501
upperback 1.09447 0.153967 1.29992
thorax -5.74759 0.231832 3.78197
lowerneck -14.2064 -7.03834 -10.9525
upperneck 35.5636 -8.07117 7.76253
head 15.8142 -3.17874 4.00541
rclavicle -3.36443e-014 7.35503e-015
rhumerus -38.3776 -21.656 -74.0495
rradius 33.9878
rwrist 7.96563
rhand -21.6104 6.32863
rfingers 7.12502
rthumb 4.78493 -23.5973
lclavicle -3.36443e-014 7.35503e-015
lhumerus -31.9898 8.09137 74.5974
lradius 32.9733
lwrist -4.95627
lhand -19.7924 26.6651
lfingers 7.12502
lthumb 6.54021 56.5441
rfemur 4.28487 4.04358 6.69865
rtibia 20.4654
rfoot -16.5758 9.34928
rtoes -30.3958
lfemur -5.08165 -14.7456 -2.34844
ltibia 20.3638
lfoot -11.017 -14.2186
ltoes -6.22785
216
root -8.31245 17.3928 6.74033 -180.424 45.0952 -176.659
lowerback 12.3954 0.403523 -4.1729
upperback 1.03511 0.123689 1.30315
thorax -5.87792 0.217493 3.71094
lowerneck -14.1134 -7.03388 -10.8067
upperneck 35.6735 -8.00242 7.51843
head 15.8142 -3.15491 3.89332
rclavicle -4.21175e-014 -1.0138e-014
rhumerus -38.3211 -21.3223 -74.3152
rradius 33.9269
rwrist 7.90031
rhand -21.6376 6.13876
rfingers 7.12502
rthumb 4.75875 -23.7878
lclavicle -4.21175e-014 -1.0138e-014
lhumerus -31.9622 8.0254 74.4714
lradius 32.9823
lwrist -5.11496
lhand -19.662 27.0471
lfingers 7.12502
lthumb 6.66608 56.9222
rfemur 4.45975 3.54962 7.42153
rtibia 20.4849
rfoot -16.9428 9.79765
rtoes -27.8038
lfemur -5.26088 -15.3028 -1.56337
ltibia 19.9488
lfoot -10.3997 -14.2065
ltoes -7.08776
217
root -8.22943 17.3949 6.86545 -180.052 44.5788 -176.142
lowerback 12.4962 0.380103 -3.87626
upperback 1.02072 0.138343 1.41314
thorax -5.95041 0.22127 3.65712
lowerneck -13.971 -7.00584 -10.9076
upperneck 35.6217 -7.91526 7.48672
head 15.7477 -3.13581 3.91377
rclavicle 8.14769e-014 -9.54166e-015
rhumerus -38.1552 -20.8159 -74.5839
rradius 33.8433
rwrist 7.92884
rhand -21.6513 6.13791
rfingers 7.12502
rthumb 4.74548 -23.7889
lclavicle 8.14769e-014 -9.54166e-015
lhumerus -32.3958 8.75841 74.222
lradius 33.7561
lwrist -5.76228
lhand -19.5693 27.3448
lfingers 7.12502
lthumb 6.75559 57.217
rfemur 4.55273 3.09767 8.41436
rtibia 20.481
rfoot -17.3743 9.40618
rtoes -27.0564
lfemur -5.45809 -15.5208 -0.624442
ltibia 19.5584
lfoot -10.2099 -13.8458
ltoes -11.2019
